<svg width="58" height="55" viewBox="0 0 58 55" fill="none" xmlns="http://www.w3.org/2000/svg">
<path fill-rule="evenodd" clip-rule="evenodd" d="M36.2408 37.5718C36.1711 37.4556 36.078 37.3393 36.0083 37.2464C37.0315 28.8317 48.985 28.2506 48.985 20.882C48.985 25.9261 37.985 23.9735 31.6827 28.0646C31.4734 26.9256 31.4036 25.7169 31.4269 24.3687C31.4269 13.0484 42.4966 8.70164 42.4966 0.798382C42.4966 8.72489 24.1245 10.352 21.9385 23.7411C19.8687 22.021 17.6594 20.8587 15.0315 20.8587C10.7525 20.8587 8.54315 25.0893 8.54315 25.0893C8.54315 25.0893 12.3571 23.8573 13.6362 28.2971C14.7059 32.0628 17.6827 48.3109 57.5897 44.1269C57.5897 44.1269 45.3571 43.1273 36.2408 37.5718Z" fill="#01BFBD"/>
<path fill-rule="evenodd" clip-rule="evenodd" d="M10.8988 51.4506C10.8755 51.4041 10.8523 51.3809 10.829 51.3344C11.2011 48.2428 15.4569 47.9174 15.7127 45.3605C15.3639 46.9643 11.4569 46.36 9.17784 47.8477C9.10808 47.406 9.06156 46.9643 9.08482 46.453C9.08482 42.1527 13.2941 40.5023 13.2941 37.5037C13.2941 40.5255 6.31738 41.1299 5.50342 46.2205C4.71273 45.5697 3.87552 45.128 2.87552 45.128C1.24761 45.128 0.4104 46.7319 0.4104 46.7319C0.4104 46.7319 1.85226 46.267 2.34063 47.9406C2.75924 49.3818 3.87552 55.5417 19.0151 53.9378C19.0151 53.9378 14.3639 53.5659 10.8988 51.4506Z" fill="#01BFBD"/>
<path fill-rule="evenodd" clip-rule="evenodd" d="M15.7807 45.3535C15.8148 45.2509 15.8148 45.1141 15.8148 44.9773C15.8148 45.1141 15.8148 45.2509 15.7807 45.3535Z" fill="#44C0B2"/>
</svg>
