<svg width="74" height="39" viewBox="0 0 74 39" fill="none" xmlns="http://www.w3.org/2000/svg">
<path d="M0.0864258 15.7335H4.48754L4.48754 25.6262H4.57267C5.00682 24.7638 5.47502 23.9703 5.91769 23.1682L10.3784 15.7335L15.8266 15.7335L9.33132 25.264L16.1841 38.1064H10.9913L6.18158 28.4466L4.48754 30.8012L4.48754 38.1064H0.0864258L0.0864258 15.7335H0.0864258Z" fill="white"/>
<path fill-rule="evenodd" clip-rule="evenodd" d="M24.7826 34.6832C22.7055 34.6832 20.9008 33.6828 20.7561 31.5955H29.9414C30.001 31.2333 30.0861 30.4657 30.0861 29.6032C30.0861 25.584 28.3324 21.5044 23.727 21.5044C18.7726 21.5044 16.5252 26.0497 16.5252 30.1638C16.5252 35.2439 19.3004 38.4609 24.1356 38.4609C26.0595 38.4609 27.8387 38.0987 29.2944 37.4346L28.7155 34.0191C27.5237 34.4504 26.2979 34.6832 24.7826 34.6832ZM23.4716 24.8595C25.5062 24.8595 25.9744 26.9209 25.9744 28.1456H20.7305C20.8497 26.7829 21.6073 24.8595 23.4716 24.8595Z" fill="white"/>
<path d="M38.2783 17.2271V21.8759H41.4621V25.5933H38.2868V31.4668C38.2868 33.4247 38.6955 34.3216 40.032 34.3216C40.5853 34.3216 41.0194 34.2526 41.3429 34.1923L41.3685 38.0045C40.7811 38.2718 39.734 38.4702 38.4826 38.4702C37.0525 38.4702 35.8607 37.8751 35.1626 37.0471C34.3454 36.0811 33.9368 34.5286 33.9368 32.2344V25.5933H32.0385V21.8759H33.9368V18.357L38.2783 17.2271Z" fill="white"/>
<path d="M49.5606 17.2271V21.8759H52.7443V25.5933H49.5691V31.4668C49.5691 33.4247 49.9777 34.3216 51.3142 34.3216C51.8675 34.3216 52.3017 34.2526 52.6252 34.1923L52.6507 38.0045C52.0633 38.2718 51.0162 38.4702 49.7649 38.4702C48.3347 38.4702 47.1429 37.8751 46.4449 37.0471C45.6276 36.0811 45.219 34.5286 45.219 32.2344V25.5933H43.3207V21.8759H45.219V18.357L49.5606 17.2271Z" fill="white"/>
<path fill-rule="evenodd" clip-rule="evenodd" d="M61.6086 38.4639C65.167 38.4639 69.2446 36.0403 69.2446 29.9684C69.2446 24.7331 66.2396 21.5074 61.9577 21.5074C57.7609 21.5074 54.3472 24.5261 54.3472 30.0029C54.3472 35.3072 57.5566 38.4639 61.6086 38.4639ZM61.8044 34.85C59.821 34.85 58.9186 32.6248 58.9186 30.0374C58.9186 27.7518 59.6166 25.0953 61.8044 25.0953C63.9922 25.0953 64.6647 27.7173 64.6647 30.0374C64.6647 32.6593 63.7539 34.85 61.8044 34.85Z" fill="white"/>
<path d="M65.3257 13.6444C65.3001 13.6012 65.2661 13.5581 65.2406 13.5236C65.6151 10.4014 69.9907 10.1858 69.9907 7.4517C69.9907 9.3233 65.9641 8.59881 63.6572 10.1168C63.5806 9.69417 63.555 9.24568 63.5635 8.74543C63.5635 4.54512 67.6156 2.93226 67.6156 -0.00019455C67.6156 2.94089 60.8905 3.54463 60.0903 8.51256C59.3327 7.87432 58.524 7.44308 57.562 7.44308C55.9957 7.44308 55.187 9.0128 55.187 9.0128C55.187 9.0128 56.583 8.55569 57.0513 10.203C57.4428 11.6003 58.5325 17.6291 73.1404 16.0766C73.1404 16.0766 68.6627 15.7057 65.3257 13.6444Z" fill="white"/>
<path d="M56.0492 18.794C56.0407 18.7768 56.0322 18.7681 56.0237 18.7509C56.1599 17.6038 57.7177 17.483 57.8114 16.5343C57.6837 17.1294 56.2535 16.9052 55.4193 17.4571C55.3937 17.2933 55.3767 17.1294 55.3852 16.9397C55.3852 15.344 56.926 14.7317 56.926 13.6191C56.926 14.7403 54.3722 14.9646 54.0743 16.8534C53.7848 16.6119 53.4784 16.448 53.1123 16.448C52.5164 16.448 52.21 17.0431 52.21 17.0431C52.21 17.0431 52.7378 16.8707 52.9165 17.4916C53.0698 18.0264 53.4784 20.312 59.0202 19.7169C59.0202 19.7169 57.3176 19.5789 56.0492 18.794Z" fill="white"/>
<path d="M57.8123 16.5356C57.8258 16.4985 57.8258 16.4491 57.8258 16.3996C57.8258 16.4491 57.8258 16.4985 57.8123 16.5356Z" fill="white"/>
</svg>
