<svg width="246" height="24" viewBox="0 0 246 24" fill="none" xmlns="http://www.w3.org/2000/svg">
<path d="M24 2.57143V21.4286C24 22.8482 22.8482 24 21.4286 24H16.8589V14.5071H20.1054L20.5714 10.8857H16.8589V8.57143C16.8589 7.52143 17.1482 6.80893 18.6536 6.80893H20.5714V3.57321C20.2393 3.53036 19.1036 3.42857 17.775 3.42857C15.0107 3.42857 13.1143 5.11607 13.1143 8.21786V10.8911H9.85714V14.5125H13.1196V24H2.57143C1.15179 24 0 22.8482 0 21.4286V2.57143C0 1.15179 1.15179 0 2.57143 0H21.4286C22.8482 0 24 1.15179 24 2.57143Z" fill="white"/>
<path fill-rule="evenodd" clip-rule="evenodd" d="M201.916 7.05166C201.825 5.12909 201.386 3.42608 199.977 2.02298C198.575 0.619882 196.872 0.180743 194.95 0.0843468C192.969 -0.0281156 187.031 -0.0281156 185.05 0.0843468C183.133 0.175388 181.431 0.614526 180.023 2.01763C178.614 3.42073 178.181 5.12373 178.084 7.0463C177.972 9.02778 177.972 14.9669 178.084 16.9483C178.175 18.8709 178.614 20.5739 180.023 21.977C181.431 23.3801 183.128 23.8193 185.05 23.9157C187.031 24.0281 192.969 24.0281 194.95 23.9157C196.872 23.8246 198.575 23.3855 199.977 21.977C201.38 20.5739 201.819 18.8709 201.916 16.9483C202.028 14.9669 202.028 9.03314 201.916 7.05166ZM196.408 7.03014C197.2 7.03014 197.842 6.39285 197.842 5.5949C197.842 4.80231 197.2 4.15967 196.408 4.15967C195.615 4.15967 194.973 4.80231 194.973 5.5949C194.973 6.38749 195.61 7.03014 196.408 7.03014ZM190.003 5.8467C186.597 5.8467 183.851 8.594 183.851 12C183.851 15.406 186.597 18.1533 190.003 18.1533C193.408 18.1533 196.155 15.406 196.155 12C196.155 8.594 193.408 5.8467 190.003 5.8467ZM190.003 16.0004C187.802 16.0004 186.003 14.2064 186.003 12C186.003 9.7936 187.797 7.99955 190.003 7.99955C192.209 7.99955 194.002 9.7936 194.002 12C194.002 14.2064 192.203 16.0004 190.003 16.0004ZM197.076 21.3558C198.13 20.9327 198.939 20.1241 199.356 19.0744C199.894 17.724 199.864 14.77 199.844 12.8551C199.841 12.5374 199.838 12.2484 199.838 12C199.838 11.7516 199.841 11.4626 199.844 11.145C199.864 9.23115 199.894 6.28059 199.356 4.92558C198.933 3.87058 198.125 3.06192 197.076 2.6442C195.721 2.1097 192.753 2.13817 190.84 2.15653C190.529 2.15951 190.246 2.16222 190.003 2.16222C189.754 2.16222 189.465 2.15929 189.148 2.15608C187.234 2.13669 184.285 2.10679 182.93 2.6442C181.875 3.06728 181.067 3.87593 180.649 4.92558C180.115 6.28029 180.143 9.24861 180.161 11.1629C180.164 11.4735 180.167 11.7563 180.167 12C180.167 12.2484 180.164 12.5374 180.161 12.855C180.142 14.7688 180.112 17.7194 180.649 19.0744C181.072 20.1294 181.88 20.9381 182.93 21.3558C184.284 21.8903 187.252 21.8618 189.166 21.8435C189.476 21.8405 189.759 21.8378 190.003 21.8378C190.251 21.8378 190.54 21.8407 190.857 21.8439C192.771 21.8633 195.721 21.8932 197.076 21.3558Z" fill="white"/>
<path fill-rule="evenodd" clip-rule="evenodd" d="M90.7089 0H111.286C112.229 0 113 0.776786 113 1.73036V22.2696C113 23.2232 112.229 24 111.286 24H90.7089C89.7661 24 89 23.2232 89 22.2696V1.73036C89 0.776786 89.7661 0 90.7089 0ZM92.6953 20.5712H96.2525H96.2578V9.11768H92.6953V20.5712ZM94.4766 7.55371C93.3355 7.55371 92.4141 6.62693 92.4141 5.49121C92.4141 4.3555 93.3355 3.42871 94.4766 3.42871C95.6123 3.42871 96.5391 4.3555 96.5391 5.49121C96.5391 6.63228 95.6176 7.55371 94.4766 7.55371ZM106.03 20.5714H109.588V14.2929C109.588 11.2071 108.918 8.83393 105.318 8.83393C103.587 8.83393 102.425 9.78214 101.948 10.6821H101.9V9.11786H98.4875V20.5714H102.045V14.9036C102.045 13.4089 102.329 11.9625 104.182 11.9625C106.004 11.9625 106.03 13.6714 106.03 15V20.5714Z" fill="white"/>
<path fill-rule="evenodd" clip-rule="evenodd" d="M158 2.57143V21.4286C158 22.8482 156.848 24 155.429 24H136.571C135.152 24 134 22.8482 134 21.4286V2.57143C134 1.15179 135.152 0 136.571 0H155.429C156.848 0 158 1.15179 158 2.57143ZM144.007 9.1125L149.107 12.0107L144.007 14.9089V9.1125ZM155.343 7.29107C155.75 8.82321 155.75 12.0161 155.75 12.0161C155.75 12.0161 155.75 15.2089 155.343 16.7357C155.118 17.5821 154.459 18.2196 153.618 18.4446C152.102 18.8571 146 18.8571 146 18.8571C146 18.8571 139.898 18.8571 138.382 18.45C137.541 18.225 136.882 17.5875 136.657 16.7411C136.25 15.2089 136.25 12.0161 136.25 12.0161C136.25 12.0161 136.25 8.81786 136.657 7.29107C136.882 6.44464 137.541 5.78036 138.382 5.55536C139.898 5.14286 146 5.14286 146 5.14286C146 5.14286 152.102 5.14286 153.618 5.55536C154.459 5.78036 155.118 6.44464 155.343 7.29107Z" fill="white"/>
<path fill-rule="evenodd" clip-rule="evenodd" d="M47.5714 0H66.4286C67.8482 0 69 1.15179 69 2.57143V21.4286C69 22.8482 67.8482 24 66.4286 24H47.5714C46.1518 24 45 22.8482 45 21.4286V2.57143C45 1.15179 46.1518 0 47.5714 0ZM63.8208 8.96243C63.8208 8.81243 63.8208 8.65707 63.81 8.50707C64.4958 8.00886 65.0958 7.38743 65.5725 6.68564C64.9404 6.95886 64.2547 7.15707 63.5475 7.23207C64.2761 6.79814 64.8279 6.11243 65.0904 5.29814C64.4154 5.69993 63.6547 5.99457 62.8618 6.14457C62.219 5.45886 61.3083 5.03564 60.2958 5.03564C58.1529 5.03564 56.369 6.96957 56.8672 9.3535C53.9529 9.2035 51.3547 7.81064 49.6243 5.6785C49.319 6.19814 49.1475 6.79814 49.1475 7.45172C49.1456 8.62731 49.733 9.72563 50.7118 10.3767C50.1386 10.3553 49.5922 10.1946 49.1261 9.93207V9.97493C49.1261 11.6839 50.3315 13.0981 51.9386 13.4249C51.3815 13.5696 50.894 13.5696 50.3529 13.4892C50.7975 14.8821 52.094 15.8946 53.6368 15.9267C52.4315 16.8696 50.9208 17.4267 49.2761 17.4267C48.9868 17.4267 48.7136 17.416 48.4297 17.3839C49.9833 18.3803 51.8315 18.9589 53.8243 18.9589C60.285 18.9589 63.8208 13.6071 63.8208 8.96243Z" fill="white"/>
<path fill-rule="evenodd" clip-rule="evenodd" d="M239.495 14.3822C239.197 14.2336 237.729 13.5147 237.455 13.4155C237.182 13.3163 236.983 13.2668 236.784 13.5642C236.585 13.8617 236.013 14.531 235.838 14.7294C235.664 14.9276 235.49 14.9525 235.192 14.8038C234.893 14.655 233.931 14.3412 232.791 13.3288C231.903 12.5409 231.304 11.5678 231.13 11.2703C230.956 10.9728 231.111 10.812 231.261 10.6638C231.395 10.5307 231.559 10.3167 231.708 10.1432C231.858 9.96972 231.907 9.8457 232.007 9.64754C232.106 9.44915 232.057 9.27563 231.982 9.12691C231.907 8.97819 231.31 7.51546 231.062 6.92042C230.819 6.34111 230.573 6.41958 230.39 6.41034C230.216 6.40173 230.017 6.3999 229.818 6.3999C229.619 6.3999 229.295 6.47426 229.022 6.7717C228.748 7.06925 227.977 7.78815 227.977 9.25076C227.977 10.7134 229.046 12.1264 229.196 12.3247C229.345 12.5231 231.301 15.5245 234.296 16.8117C235.008 17.1179 235.564 17.3007 235.998 17.4376C236.713 17.6639 237.364 17.6319 237.878 17.5554C238.452 17.4701 239.645 16.8366 239.894 16.1425C240.142 15.4483 240.142 14.8533 240.068 14.7294C239.993 14.6054 239.794 14.531 239.495 14.3822ZM234.049 21.7852H234.045C232.263 21.7846 230.515 21.3081 228.99 20.4074L228.628 20.1932L224.869 21.1746L225.872 17.527L225.636 17.153C224.642 15.5792 224.117 13.7603 224.118 11.8925C224.12 6.44252 228.575 2.00856 234.053 2.00856C236.706 2.00947 239.199 3.03904 241.074 4.90743C242.949 6.77577 243.981 9.25934 243.98 11.9005C243.978 17.3509 239.523 21.7852 234.049 21.7852ZM242.501 3.48771C240.245 1.23976 237.245 0.00125453 234.049 0C227.463 0 222.103 5.33466 222.1 11.8917C222.099 13.9878 222.649 16.0337 223.695 17.8374L222 24L228.334 22.3462C230.079 23.2936 232.044 23.7931 234.044 23.7937H234.049H234.049C240.634 23.7937 245.995 18.4585 245.998 11.9013C245.999 8.7236 244.757 5.73559 242.501 3.48771Z" fill="white"/>
</svg>
